#!OML:ASF E:\Steps\Project 1\Capture day 1\Session 2\Subject.ASF
:FULLY-SPECIFIED
:DEGREES
78
root 8.79917 16.3107 31.0504 -154.997 0.013052 179.977
lowerback -27.4154 -1.63358 -3.93036
upperback -2.91397 -0.0939193 -0.279912
thorax 12.0161 0.114345 1.98931
lowerneck -2.98073 -3.53397 -3.44591
upperneck -11.9642 -4.98976 8.07781
head -3.05804 -2.99358 3.38865
rclavicle 4.96962e-016 -7.95139e-016
rhumerus -31.8386 -12.1564 -85.0439
rradius 34.954
rwrist -3.20104
rhand -9.54139 -51.9917
rfingers 7.12502
rthumb 16.4252 -81.3163
lclavicle 4.96962e-016 -7.95139e-016
lhumerus -26.7591 -2.93999 86.9043
lradius 29.3303
lwrist -0.36033
lhand -20.8952 -14.2499
lfingers 7.12502
lthumb 5.4755 15.6594
rfemur -23.24 7.69785 18.3486
rtibia 8.79038
rfoot -19.8606 -6.51822
rtoes -30.479
lfemur -22.4498 -8.56598 -18.3719
ltibia 7.92229
lfoot -9.02063 5.26774
ltoes -43.6922
79
root 8.80362 16.3144 31.0646 -154.85 -0.183506 179.899
lowerback -27.3549 -0.800372 -4.57625
upperback -2.97571 -0.457008 -0.289167
thorax 11.8909 -0.769672 2.07307
lowerneck -3.10902 -3.53011 -3.4299
upperneck -11.8396 -4.98276 8.07146
head -2.99226 -2.98474 3.37352
rclavicle 1.49089e-016 -9.54166e-015
rhumerus -31.7554 -12.0835 -85.0325
rradius 34.9156
rwrist -2.9712
rhand -7.82937 -60.1269
rfingers 7.12502
rthumb 18.073 -89.3072
lclavicle 1.49089e-016 -9.54166e-015
lhumerus -26.6622 -3.23026 87.0564
lradius 29.4171
lwrist -0.224185
lhand -20.9818 -14.1066
lfingers 7.12502
lthumb 5.39189 15.8048
rfemur -23.4437 7.71382 18.2726
rtibia 8.83725
rfoot -19.8404 -6.74643
rtoes -30.289
lfemur -22.8127 -8.46232 -18.3913
ltibia 8.14103
lfoot -8.99357 4.92623
ltoes -43.2561
80
root 8.79659 16.316 31.0514 -155.07 -0.0150893 179.908
lowerback -27.3499 -0.739662 -4.49974
upperback -2.88532 -0.378581 -0.320513
thorax 11.9879 -0.725675 2.02236
lowerneck -3.14913 -3.53861 -3.46192
upperneck -11.7287 -4.98682 8.09977
head -2.94517 -2.98058 3.38313
rclavicle 1.02871e-014 -1.39149e-014
rhumerus -31.7501 -11.9609 -85.0391
rradius 35.1002
rwrist -2.36619
rhand -5.64465 -66.3681
rfingers 7.12502
rthumb 20.1739 -264.659
lclavicle 1.02871e-014 -1.39149e-014
lhumerus -26.6599 -3.39161 87.1522
lradius 29.5821
lwrist -0.077732
lhand -20.9096 -14.0682
lfingers 7.12502
lthumb 5.46164 15.8415
rfemur -23.1408 7.66028 18.2536
rtibia 8.76257
rfoot -19.8637 -6.53478
rtoes -30.2761
lfemur -22.4016 -8.73668 -18.4383
ltibia 7.95288
lfoot -9.02992 5.30448
ltoes -42.7514
81
root 8.79968 16.3157 31.0574 -154.975 -0.0312076 179.836
lowerback -27.386 -0.805832 -4.63836
upperback -2.91815 -0.43294 -0.300096
thorax 11.9726 -0.760605 2.10504
lowerneck -3.21475 -3.52308 -3.5001
upperneck -11.6591 -4.96355 8.10375
head -2.90991 -2.96413 3.38629
rclavicle 1.54058e-015 -2.38542e-015
rhumerus -31.7258 -11.5486 -85.2062
rradius 35.0862
rwrist -3.32452
rhand -8.12958 -60.0614
rfingers 7.12502
rthumb 17.7842 -89.2682
lclavicle 1.54058e-015 -2.38542e-015
lhumerus -26.6227 -3.41338 87.2291
lradius 29.6837
lwrist -0.0220523
lhand -20.5867 -14.3039
lfingers 7.12502
lthumb 5.77341 15.5974
rfemur -23.275 7.63823 18.1934
rtibia 8.80289
rfoot -19.862 -6.54728
rtoes -30.1485
lfemur -22.5852 -8.53249 -18.5434
ltibia 8.0757
lfoot -9.07108 5.07127
ltoes -42.8184
82
root 8.80386 16.314 31.0651 -154.852 -0.0667029 179.833
lowerback -27.4711 -0.842183 -4.71547
upperback -2.9391 -0.463088 -0.276737
thorax 11.9953 -0.781996 2.1641
lowerneck -3.22181 -3.54683 -3.513
upperneck -11.6939 -4.99624 8.15264
head -2.91715 -2.98423 3.40689
rclavicle -8.94531e-016 -5.56597e-015
rhumerus -31.6307 -11.4933 -85.2386
rradius 35.0896
rwrist -3.31083
rhand -9.04501 -57.0156
rfingers 7.12502
rthumb 16.9031 -86.3
lclavicle -8.94531e-016 -5.56597e-015
lhumerus -26.5233 -3.49309 87.2937
lradius 29.7027
lwrist 0.031281
lhand -20.257 -14.6368
lfingers 7.12502
lthumb 6.09169 15.2557
rfemur -23.4636 7.68252 18.1997
rtibia 8.86111
rfoot -19.8417 -6.61886
rtoes -30.0339
lfemur -22.81 -8.37956 -18.5205
ltibia 8.18646
lfoot -9.04955 4.88031
ltoes -42.9199
83
root 8.80211 16.3151 31.0616 -154.976 -0.0473325 179.858
lowerback -27.4396 -0.813952 -4.65245
upperback -2.88923 -0.432905 -0.293228
thorax 12.0346 -0.76173 2.12058
lowerneck -3.22442 -3.5626 -3.5025
upperneck -11.6899 -5.01693 8.17134
head -2.91376 -2.99572 3.41119
rclavicle 4.07509e-015 -2.18663e-014
rhumerus -31.622 -11.4924 -85.2662
rradius 35.1086
rwrist -3.26245
rhand -9.16004 -57.2542
rfingers 7.12502
rthumb 16.7924 -86.5481
lclavicle 4.07509e-015 -2.18663e-014
lhumerus -26.5115 -3.66251 87.3495
lradius 29.7682
lwrist 0.244449
lhand -20.2078 -14.8133
lfingers 7.12502
lthumb 6.13917 15.0777
rfemur -23.3093 7.69974 18.2162
rtibia 8.81467
rfoot -19.8131 -6.62979
rtoes -30.2365
lfemur -22.6265 -8.60019 -18.4638
ltibia 8.1164
lfoot -9.0361 5.10718
ltoes -42.8392
84
root 8.80273 16.3156 31.0624 -154.977 -0.0393371 179.874
lowerback -27.4435 -0.814028 -4.63113
upperback -2.89331 -0.440712 -0.289186
thorax 12.0325 -0.764613 2.10996
lowerneck -3.27448 -3.55676 -3.53756
upperneck -11.6285 -5.0062 8.18175
head -2.88328 -2.98618 3.41692
rclavicle 1.2424e-015 0
rhumerus -31.6257 -11.4641 -85.2853
rradius 35.1362
rwrist -3.22542
rhand -9.14092 -57.4059
rfingers 7.12502
rthumb 16.8108 -86.6982
lclavicle 1.2424e-015 0
lhumerus -26.5689 -3.73103 87.3951
lradius 29.859
lwrist 0.392926
lhand -20.2826 -14.7207
lfingers 7.12502
lthumb 6.06701 15.1724
rfemur -23.317 7.73548 18.2297
rtibia 8.81588
rfoot -19.8047 -6.66076
rtoes -30.5316
lfemur -22.6242 -8.54622 -18.4474
ltibia 8.10281
lfoot -9.07087 5.09023
ltoes -42.5331
85
root 8.80623 16.3143 31.0702 -154.798 -0.0826617 179.871
lowerback -27.5161 -0.8557 -4.67594
upperback -2.97871 -0.502318 -0.259795
thorax 11.9756 -0.801188 2.14552
lowerneck -3.28384 -3.56751 -3.59998
upperneck -11.5953 -5.01639 8.21715
head -2.8675 -2.98814 3.43904
rclavicle 3.42904e-015 -1.11319e-014
rhumerus -31.6514 -11.5056 -85.2408
rradius 35.1491
rwrist -2.96844
rhand -8.57098 -57.4134
rfingers 7.12502
rthumb 17.3594 -86.6582
lclavicle 3.42904e-015 -1.11319e-014
lhumerus -26.6283 -3.67385 87.4369
lradius 29.871
lwrist 0.393708
lhand -20.369 -14.5078
lfingers 7.12502
lthumb 5.98359 15.3877
rfemur -23.569 7.79267 18.2183
rtibia 8.87928
rfoot -19.7685 -6.7515
rtoes -30.7658
lfemur -22.918 -8.31548 -18.4408
ltibia 8.22586
lfoot -9.10733 4.86693
ltoes -42.492
86
root 8.80558 16.3151 31.0679 -154.855 -0.00783381 179.884
lowerback -27.4855 -0.818575 -4.63605
upperback -2.99854 -0.469101 -0.276536
thorax 11.9337 -0.783668 2.11591
lowerneck -3.23436 -3.59312 -3.64898
upperneck -11.5711 -5.04433 8.25713
head -2.86451 -2.99955 3.46273
rclavicle 3.08116e-015 9.54166e-015
rhumerus -31.7608 -11.5093 -85.2193
rradius 35.1876
rwrist -2.84088
rhand -8.0147 -57.5866
rfingers 7.12502
rthumb 17.8947 -86.7833
lclavicle 3.08116e-015 9.54166e-015
lhumerus -26.6815 -3.68625 87.4506
lradius 29.8266
lwrist 0.421427
lhand -20.3416 -14.416
lfingers 7.12502
lthumb 6.01001 15.4788
rfemur -23.5094 7.79387 18.2288
rtibia 8.87778
rfoot -19.7907 -6.66078
rtoes -30.8156
lfemur -22.7751 -8.4386 -18.4428
ltibia 8.10737
lfoot -9.05409 5.11982
ltoes -43.2508
87
root 8.80229 16.318 31.0597 -155.083 0.1298 179.912
lowerback -27.3994 -1.7009 -4.06922
upperback -2.93007 -0.139034 -0.277567
thorax 11.9928 0.0884857 2.05552
lowerneck -3.2841 -3.60165 -3.61611
upperneck -11.5107 -5.05511 8.263
head -2.83445 -3.00393 3.45437
rclavicle 1.63997e-015 1.59028e-014
rhumerus -31.7637 -11.5092 -85.3181
rradius 35.1311
rwrist -3.21613
rhand -7.64003 -60.7787
rfingers 7.12502
rthumb 18.2552 -89.9421
lclavicle 1.63997e-015 1.59028e-014
lhumerus -26.6795 -3.7604 87.4164
lradius 29.7978
lwrist 0.454093
lhand -20.1478 -14.2686
lfingers 7.12502
lthumb 6.19714 15.6207
rfemur -23.2296 7.78241 18.2541
rtibia 8.85626
rfoot -19.9131 -6.51072
rtoes -30.8665
lfemur -22.3567 -8.70447 -18.4483
ltibia 7.86544
lfoot -9.00261 5.55
ltoes -43.7375
88
root 8.80479 16.3137 31.0666 -154.856 0.10317 179.889
lowerback -27.5567 -1.74722 -4.10135
upperback -2.97898 -0.163562 -0.295189
thorax 12.021 0.0835224 2.04664
lowerneck -3.35148 -3.61394 -3.59
upperneck -11.4977 -5.07469 8.28254
head -2.81653 -3.0161 3.45338
rclavicle -8.19987e-015 2.26615e-014
rhumerus -31.7219 -11.7868 -85.2757
rradius 35.211
rwrist -2.44559
rhand -5.31787 -66.919
rfingers 7.12502
rthumb 20.488 -264.142
lclavicle -8.19987e-015 2.26615e-014
lhumerus -26.6445 -3.87802 87.37
lradius 29.779
lwrist 0.526747
lhand -19.9936 -14.1225
lfingers 7.12502
lthumb 6.34599 15.7625
rfemur -23.5437 7.78297 18.2105
rtibia 8.94879
rfoot -19.8968 -6.60244
rtoes -30.9712
lfemur -22.7429 -8.4807 -18.4524
ltibia 8.0681
lfoot -9.06884 5.29228
ltoes -43.6777
